<svg id="Capa_1" enable-background="new 0 0 512 512" height="512" viewBox="0 0 512 512" width="512" xmlns="http://www.w3.org/2000/svg"><g><path d="m497 0h-482c-8.284 0-15 6.716-15 15v65c0 8.284 6.716 15 15 15h9v402c0 8.284 6.716 15 15 15h434c8.284 0 15-6.716 15-15v-402h9c8.284 0 15-6.716 15-15v-65c0-8.284-6.716-15-15-15zm-467 30h452v35h-452zm428 452h-35v-66c0-8.284-6.716-15-15-15h-9v-114.053c0-34.951-15.085-67.725-42.481-92.288-26.942-24.134-62.64-37.426-100.519-37.426-78.851 0-143 58.189-143 129.713v114.054h-9c-8.284 0-15 6.716-15 15v66h-35v-387h404zm-140.099-151.666-31.804-87.46c-2.209-6.076-8.09-10.06-14.526-9.868-6.463.185-12.08 4.491-13.938 10.684l-15.462 51.538-6.171-8.228c-3.347-4.463-8.896-6.701-14.403-5.806-5.507.894-10.063 4.77-11.828 10.063l-15.727 47.182c-8.375 18.367-6.193 41.427 5.784 60.454.449.714.913 1.415 1.383 2.108h-58.209v-114.054c0-54.982 50.691-99.713 113-99.713 30.481 0 59.07 10.573 80.497 29.767 20.96 18.792 32.503 43.633 32.503 69.946v114.053h-57.566c7.517-11.365 11.716-24.792 11.716-38.09 0-5.461-.976-22.811-5.249-32.576zm-24.751 32.576c0 18.395-14.679 38.09-36.53 38.09-18.066 0-27.981-12.651-31.405-18.09-6.736-10.7-8.149-23.124-3.69-32.424.271-.565.506-1.147.705-1.742l6.947-20.841 6.823 9.097c3.396 4.528 9.055 6.761 14.627 5.768 5.573-.991 10.114-5.036 11.74-10.458l10.999-36.661 16.538 45.477c.167.459.34.876.551 1.317 1.259 2.859 2.695 13.762 2.695 20.467zm-174.15 119.09v-51h274v51z"/></g></svg>