<svg height="512pt" viewBox="-56 0 512 512" width="512pt" xmlns="http://www.w3.org/2000/svg"><path d="m392.265625 183.359375c4.152344 0 7.515625-3.367187 7.515625-7.515625v-168.328125c0-4.152344-3.363281-7.515625-7.515625-7.515625h-384.75c-4.152344 0-7.515625 3.363281-7.515625 7.515625v496.96875c0 4.152344 3.363281 7.515625 7.515625 7.515625h48.09375c4.148437 0 7.515625-3.363281 7.515625-7.515625v-128.75h33.0625v80.65625c0 4.152344 3.363281 7.515625 7.515625 7.515625h48.09375c4.152344 0 7.515625-3.363281 7.515625-7.515625v-232.953125h33.0625v40.578125c0 4.148437 3.363281 7.515625 7.515625 7.515625h40.578125v96.6875c0 4.152344 3.363281 7.515625 7.515625 7.515625h40.578125v56.609375c0 4.152344 3.363281 7.515625 7.515625 7.515625h48.09375c4.152344 0 7.515625-3.363281 7.515625-7.515625v-152.796875h40.578125c4.152344 0 7.515625-3.367187 7.515625-7.515625v-64.125c0-4.148438-3.363281-7.515625-7.515625-7.515625s-7.515625 3.367187-7.515625 7.515625v56.609375h-33.0625v-249.484375h33.0625v160.8125c0 4.148438 3.363281 7.515625 7.515625 7.515625zm-55.609375 9.015625h-33.0625v-177.34375h33.0625zm-48.09375-40.078125h-33.0625v-137.265625h33.0625zm-144.28125 63.625v80.65625h-33.0625v-281.546875h33.0625zm-48.09375-63.625h-33.0625v-137.265625h33.0625zm-81.15625-137.265625h33.0625v193.375h-33.0625zm33.0625 481.9375h-33.0625v-273.53125h33.0625zm15.03125-136.265625v-193.375h33.0625v193.375zm81.15625 88.171875h-33.0625v-137.265625h33.0625zm15.03125-240.46875v-193.375h33.0625v193.375zm48.09375 48.09375v-241.46875h33.0625v241.46875zm48.09375 104.203125v-193.375h33.0625v193.375zm81.15625 64.125h-33.0625v-217.421875h33.0625zm0 0"/></svg>