<svg id="Capa_1" enable-background="new 0 0 511.969 511.969" height="512" viewBox="0 0 511.969 511.969" width="512" xmlns="http://www.w3.org/2000/svg"><g><path d="m413.389 134.694c-3.677 7.34-12.625 10.428-20.13 6.71l-10.29-5.15-10 15.73c0 8.28-6.72 15-15 15h-300c-8.28 0-15-6.72-15-15l-10-15.73-11.26 5.63c-7.342 3.689-16.386.759-20.12-6.71-3.71-7.41-.7-16.42 6.71-20.12 43.886-21.956 5.766-4.265 193.51-88.75 3.919-1.76 8.4-1.76 12.32 0 191.866 86.339 149.841 66.905 192.55 88.26 7.41 3.71 10.41 12.72 6.71 20.13z" fill="#0a789b"/><path d="m413.389 134.694c-3.677 7.34-12.625 10.428-20.13 6.71l-10.29-5.15v15.73c0 8.28-6.72 15-15 15h-160v-142c2.1 0 4.2.44 6.16 1.32 191.866 86.339 149.841 66.905 192.55 88.26 7.41 3.71 10.41 12.72 6.71 20.13z" fill="#08475e"/><path d="m496.969 344.984h-10v-290h10c8.284 0 15-6.716 15-15s-6.716-15-15-15h-49c-8.284 0-15 6.716-15 15s6.716 15 15 15h9v290h-9c-8.284 0-15 6.716-15 15s6.716 15 15 15h49c8.284 0 15-6.716 15-15s-6.716-15-15-15z" fill="#ff2929"/><path d="m382.969 423.984v48c0 8.28-6.72 15-15 15s-15-6.72-15-15v-9h-290v9c0 8.28-6.72 15-15 15s-15-6.72-15-15v-48c0-8.28 6.72-15 15-15s15 6.72 15 15v9h290v-9c0-8.28 6.72-15 15-15s15 6.72 15 15z" fill="#ff7038"/><path d="m382.969 423.984v48c0 8.28-6.72 15-15 15s-15-6.72-15-15v-9h-145v-30h145v-9c0-8.28 6.72-15 15-15s15 6.72 15 15z" fill="#ff2929"/><path d="m382.969 136.254v223.73c0 8.284-6.716 15-15 15h-320c-8.284 0-15-6.716-15-15v-223.73z" fill="#ffdd54"/><path d="m382.969 136.254v223.73c0 8.284-6.716 15-15 15h-160v-238.73z" fill="#ffb454"/><path d="m158.969 215.984v80c0 8.28-6.72 15-15 15h-111v-110h111c8.28 0 15 6.72 15 15z" fill="#e0eaef"/><path d="m382.969 200.984v110h-111c-8.28 0-15-6.72-15-15v-80c0-8.28 6.72-15 15-15z" fill="#cce0e5"/></g></svg>