<svg id="Capa_1" enable-background="new 0 0 512 512" height="512" viewBox="0 0 512 512" width="512" xmlns="http://www.w3.org/2000/svg"><g><path d="m59.64 232.043c2.159.308 4.314.46 6.457.46 5.111 0 10.136-.877 14.903-2.568v165.065c0 8.284 6.716 15 15 15h320c8.284 0 15-6.716 15-15v-165.066c4.764 1.686 9.803 2.562 14.976 2.562 14.106 0 27.573-6.73 36.022-18 7.213-9.615 10.249-21.464 8.549-33.365-1.699-11.901-7.933-22.427-17.549-29.638l-41.998-31.5v-104.993c0-8.284-6.716-15-15-15h-60c-8.284 0-15 6.716-15 15v37.492l-58.009-43.506c-15.893-11.904-38.091-11.904-53.989.005l-189.999 142.5c-9.617 7.212-15.851 17.738-17.55 29.639-1.7 11.901 1.336 23.75 8.546 33.361 7.211 9.619 17.738 15.853 29.641 17.552zm51.36 147.957v-170.002l145-108.752 145 108.752v170.002zm260-350h30v67.493l-30-22.5zm-319.848 155.372c.566-3.968 2.645-7.477 5.851-9.881l189.992-142.494c2.651-1.987 5.83-2.979 9.007-2.979 3.176 0 6.35.992 8.996 2.974l190.001 142.5c3.205 2.404 5.283 5.913 5.85 9.88.566 3.967-.445 7.916-2.852 11.124-2.858 3.813-7.24 6-12.021 6-3.255 0-6.359-1.038-8.974-2.996l-172.002-129.005c-5.334-4-12.666-4-18 0l-172 129.003c-3.204 2.402-7.157 3.41-11.12 2.847-3.967-.566-7.475-2.644-9.88-5.853-2.403-3.204-3.415-7.153-2.848-11.12z"/><path d="m507.607 446.394-40-40c-5.857-5.858-15.355-5.858-21.213 0s-5.858 15.355 0 21.213l14.393 14.393h-409.574l14.394-14.394c5.858-5.858 5.858-15.355 0-21.213-5.857-5.858-15.355-5.858-21.213 0l-40 40c-5.858 5.858-5.858 15.355 0 21.213l40 40c2.929 2.93 6.767 4.394 10.606 4.394s7.678-1.464 10.606-4.394c5.858-5.858 5.858-15.355 0-21.213l-14.393-14.393h409.574l-14.394 14.394c-5.858 5.858-5.858 15.355 0 21.213 2.93 2.929 6.768 4.393 10.607 4.393s7.678-1.464 10.606-4.394l40-40c5.859-5.857 5.859-15.354.001-21.212z"/><path d="m346 210h-180c-8.284 0-15 6.716-15 15v90c0 8.284 6.716 15 15 15h180c8.284 0 15-6.716 15-15v-90c0-8.284-6.716-15-15-15zm-165 30h60v60h-60zm150 60h-60v-60h60z"/></g></svg>