<svg height="511pt" viewBox="0 -50 511.99758 511" width="511pt" xmlns="http://www.w3.org/2000/svg"><path d="m400.8125 332.003906c-4.144531 0-7.5 3.359375-7.5 7.5v56.792969h-204.457031v-140.859375c0-5.238281-4.261719-9.5-9.5-9.5h-83.441407c-5.238281 0-9.5 4.261719-9.5 9.5v140.859375h-51.453124v-222.542969h304.847656c4.144531 0 7.5-3.359375 7.5-7.5 0-4.144531-3.355469-7.5-7.5-7.5h-324.503906l15.113281-35.304687c1.628906-3.804688-.132813-8.214844-3.941407-9.84375-3.808593-1.632813-8.21875.132812-9.847656 3.941406l-15.460937 36.109375c-1.914063 4.46875-1.457031 9.558594 1.21875 13.617188 2.675781 4.054687 7.175781 6.480468 12.035156 6.480468h5.539063v228.042969c0 5.238281 4.261718 9.5 9.5 9.5h369.351562c5.234375 0 9.5-4.261719 9.5-9.5v-62.292969c0-4.140625-3.359375-7.5-7.5-7.5zm-299.398438 64.292969v-135.359375h72.441407v135.359375zm0 0"/><path d="m343.820312 253.4375c0-4.140625-3.355468-7.5-7.5-7.5h-84.878906c-4.140625 0-7.5 3.359375-7.5 7.5v77.382812h-15.105468c-4.140626 0-7.5 3.355469-7.5 7.5 0 4.140626 3.359374 7.5 7.5 7.5h130.089843c4.140625 0 7.5-3.359374 7.5-7.5 0-4.144531-3.359375-7.5-7.5-7.5h-15.105469zm-15 34.941406h-27.4375v-27.441406h27.4375zm-42.4375-27.441406v27.441406h-27.441406v-27.441406zm-27.441406 42.441406h27.441406v27.441406h-27.441406zm42.441406 27.441406v-27.441406h27.4375v27.441406zm0 0"/><path d="m504.328125 39.867188c-1.871094-3.695313-6.382813-5.175782-10.078125-3.308594-3.699219 1.871094-5.179688 6.382812-3.308594 10.078125 4.019532 7.953125 6.058594 16.539062 6.058594 25.523437v71.988282c0 5.292968-4.304688 9.597656-9.597656 9.597656-5.292969 0-9.601563-4.304688-9.601563-9.597656v-8.515626c0-18.128906-14.746093-32.875-32.871093-32.875h-85.730469c-1.644531-12.230468-12.148438-21.691406-24.820313-21.691406h-9.042968v-43.875h9.042968c12.671875 0 23.179688-9.460937 24.820313-21.691406h81.136719c12.160156 0 23.75 3.789062 33.511718 10.964844 3.339844 2.453125 8.035156 1.738281 10.488282-1.601563 2.453124-3.335937 1.734374-8.03125-1.605469-10.484375-12.355469-9.082031-27.015625-13.878906-42.394531-13.878906h-88.414063c-4.140625 0-7.5 3.355469-7.5 7.5v4.148438c0 5.535156-4.503906 10.042968-10.042969 10.042968h-9.042968v-9.820312c0-6.546875-5.328126-11.871094-11.875-11.871094h-31.535157c-6.546875 0-11.875 5.324219-11.875 11.871094v46.738281h-74.109375c-5.355468-24.5-27.222656-42.898437-53.304687-42.898437-26.085938 0-47.949219 18.398437-53.304688 42.898437h-27.304687c-12.382813 0-23.53125 7.355469-28.394532 18.738281l-4.101562 9.566406c-1.628906 3.808594.132812 8.21875 3.941406 9.847657.964844.414062 1.964844.609375 2.949219.609375 2.910156 0 5.679687-1.703125 6.898437-4.550782l4.101563-9.574218c2.503906-5.855469 8.234375-9.636719 14.605469-9.636719h26.046875v47.855469c0 4.144531 3.359375 7.5 7.5 7.5h94.117187c4.140625 0 7.5-3.355469 7.5-7.5v-47.855469h72.859375v31.777344c0 6.546875 5.324219 11.875 11.871094 11.875h31.539063c6.546874 0 11.875-5.328125 11.875-11.875v-9.820313h9.042968c5.535156 0 10.042969 4.507813 10.042969 10.046875v4.148438c0 4.140625 3.359375 7.5 7.5 7.5h21.339844v20.710937c-6.152344 1.253906-10.800781 6.710938-10.800781 13.230469v151.800781c0 7.445313 6.058593 13.5 13.5 13.5h50.640624c7.445313 0 13.5-6.054687 13.5-13.5v-151.800781c0-6.519531-4.644531-11.976563-10.800781-13.230469v-20.710937h15.625c9.855469 0 17.875 8.015625 17.875 17.871093v8.515626c0 13.5625 11.035157 24.597656 24.597657 24.597656s24.597656-11.035156 24.597656-24.597656v-71.984376c.003906-11.359374-2.578125-22.222656-7.667969-32.296874zm-322.136719 30.902343v5.871094h-32.058594v-44.71875c18.359376 3.539063 32.058594 19.71875 32.058594 38.847656zm-47.058594-38.847656v44.71875h-32.058593v-5.871094c0-19.292969 13.863281-35.339843 32.058593-38.847656zm-32.058593 59.71875h32.058593v22.828125h-32.058593zm47.058593 22.824219v-22.824219h32.058594v22.824219zm160.203126-11.703125h-25.285157v-87.261719h25.285157zm114.769531 199.242187h-47.640625v-148.800781h47.640625zm-10.804688-163.800781h-26.035156v-20.441406h26.035156zm0 0"/><path d="m116.910156 316.480469c-4.140625 0-7.5 3.359375-7.5 7.5v9.273437c0 4.144532 3.359375 7.5 7.5 7.5s7.5-3.355468 7.5-7.5v-9.273437c0-4.140625-3.359375-7.5-7.5-7.5zm0 0"/></svg>